# xmcd
#
# Track frame offsets:
#	150
#	25904
#	40350
#	59117
#	92380
#	117328
#	131913
#	151938
#	168210
#	182363
#	207375
#	221097
#	237588
#
# Disc length: 3343 seconds
#
# Revision: 1
# Processed by: cddbd v1.5.1PL2 Copyright (c) Steve Scherf et al.
# Submitted via: CDmax 1.8
#
DISCID=b90d0d0d
DTITLE=Larry Burton - The Blues Just Stay The Same
DYEAR=1997
DGENRE=Blues
TTITLE0=How Could I Be Such A Fool
TTITLE1=Good Idea At The Time
TTITLE2=Coming Home
TTITLE3=Pain In My Heart
TTITLE4=You Believe In Me
TTITLE5=High Heels and Tight Blue Jeans
TTITLE6=Come Inside My Room
TTITLE7=Pipe Dream
TTITLE8=Delta Sundown
TTITLE9=I've Got Two Women
TTITLE10=Skating On Thin Ice
TTITLE11=Why Did You Treat Me That Way
TTITLE12=The Blues Just Stay the Same
EXTD=
EXTT0=
EXTT1=
EXTT2=
EXTT3=
EXTT4=
EXTT5=
EXTT6=
EXTT7=
EXTT8=
EXTT9=
EXTT10=
EXTT11=
EXTT12=
PLAYORDER=
